<?xml version="1.0" encoding="UTF-8" standalone="no"?>
<svg
   xmlns:dc="http://purl.org/dc/elements/1.1/"
   xmlns:rdf="http://www.w3.org/1999/02/22-rdf-syntax-ns#"
   xmlns:svg="http://www.w3.org/2000/svg"
   xmlns="http://www.w3.org/2000/svg"
   viewBox="0 0 625 625"
   height="625"
   width="625"
   xml:space="preserve"
   version="1.1"
   id="svg2"><defs
     id="defs6" /><g
     transform="matrix(1.25,0,0,-1.25,0,625)"
     id="g10"><g
       transform="scale(0.1,0.1)"
       id="g12"><path
         id="path16"
         style="fill:#3f4141;fill-opacity:1;fill-rule:nonzero;stroke:none"
         d="m 2672.69,2305.05 0,-122.18 -375.9,0 0,177.62 c 0,204.31 321.34,319.79 321.34,441.93 0,84.38 -78.86,138.06 -149.55,138.06 -86.92,0 -158.08,-75.63 -226.81,-164.45 l -235.79,218.93 c 141.48,179.86 304.96,291.93 507.04,291.93 268.84,0 480.96,-189.13 480.96,-488.93 0,-288.66 -321.29,-359.73 -321.29,-492.91 z m -193,-646.2 c -120.94,0 -218.95,98.04 -218.95,218.92 0,120.94 98.01,218.98 218.95,218.98 120.92,0 218.91,-98.04 218.91,-218.98 0,-120.88 -97.99,-218.92 -218.91,-218.92 z M 2500,3816 c -726.79,0 -1316,-589.2 -1316,-1316 0,-726.81 589.21,-1316 1316,-1316 726.81,0 1316,589.19 1316,1316 0,726.8 -589.19,1316 -1316,1316" /></g></g></svg>
